<svg width="1621" height="447" viewBox="0 0 1621 447" fill="none" xmlns="http://www.w3.org/2000/svg">
<path d="M599.268 279.08C592.068 279.08 585.408 277.52 579.288 274.4C573.168 271.28 568.188 266.84 564.348 261.08L572.268 252.08C579.228 262.4 588.288 267.56 599.448 267.56C615.048 267.56 622.848 258.32 622.848 239.84V163.52H576.768V152H635.988V239.3C635.988 252.5 632.868 262.46 626.628 269.18C620.508 275.78 611.388 279.08 599.268 279.08ZM758.564 183.32V278H746.324V260.72C742.964 266.48 738.344 270.98 732.464 274.22C726.584 277.34 719.864 278.9 712.304 278.9C699.944 278.9 690.164 275.48 682.964 268.64C675.884 261.68 672.344 251.54 672.344 238.22V183.32H685.124V236.96C685.124 246.92 687.584 254.48 692.504 259.64C697.424 264.8 704.444 267.38 713.564 267.38C723.524 267.38 731.384 264.38 737.144 258.38C742.904 252.26 745.784 243.8 745.784 233V183.32H758.564ZM842.597 182.6C854.477 182.6 863.897 186.08 870.857 193.04C877.937 199.88 881.477 209.9 881.477 223.1V278H868.697V224.36C868.697 214.52 866.237 207.02 861.317 201.86C856.397 196.7 849.377 194.12 840.257 194.12C830.057 194.12 821.957 197.18 815.957 203.3C810.077 209.3 807.137 217.64 807.137 228.32V278H794.357V183.32H806.597V200.78C810.077 195.02 814.877 190.58 820.997 187.46C827.237 184.22 834.437 182.6 842.597 182.6ZM1004.19 183.32V266.48C1004.19 282.56 1000.23 294.44 992.305 302.12C984.505 309.92 972.685 313.82 956.845 313.82C948.085 313.82 939.745 312.5 931.825 309.86C924.025 307.34 917.665 303.8 912.745 299.24L919.225 289.52C923.785 293.6 929.305 296.78 935.785 299.06C942.385 301.34 949.285 302.48 956.485 302.48C968.485 302.48 977.305 299.66 982.945 294.02C988.585 288.5 991.405 279.86 991.405 268.1V256.04C987.445 262.04 982.225 266.6 975.745 269.72C969.385 272.84 962.305 274.4 954.505 274.4C945.625 274.4 937.525 272.48 930.205 268.64C923.005 264.68 917.305 259.22 913.105 252.26C909.025 245.18 906.985 237.2 906.985 228.32C906.985 219.44 909.025 211.52 913.105 204.56C917.305 197.6 923.005 192.2 930.205 188.36C937.405 184.52 945.505 182.6 954.505 182.6C962.545 182.6 969.805 184.22 976.285 187.46C982.765 190.7 987.985 195.38 991.945 201.5V183.32H1004.19ZM955.765 263.06C962.605 263.06 968.785 261.62 974.305 258.74C979.825 255.74 984.085 251.6 987.085 246.32C990.205 241.04 991.765 235.04 991.765 228.32C991.765 221.6 990.205 215.66 987.085 210.5C984.085 205.22 979.825 201.14 974.305 198.26C968.905 195.26 962.725 193.76 955.765 193.76C948.925 193.76 942.745 195.2 937.225 198.08C931.825 200.96 927.565 205.04 924.445 210.32C921.445 215.6 919.945 221.6 919.945 228.32C919.945 235.04 921.445 241.04 924.445 246.32C927.565 251.6 931.825 255.74 937.225 258.74C942.745 261.62 948.925 263.06 955.765 263.06ZM1039.92 144.44H1052.7V278H1039.92V144.44ZM1170.7 234.62H1091.5C1092.22 244.46 1096 252.44 1102.84 258.56C1109.68 264.56 1118.32 267.56 1128.76 267.56C1134.64 267.56 1140.04 266.54 1144.96 264.5C1149.88 262.34 1154.14 259.22 1157.74 255.14L1164.94 263.42C1160.74 268.46 1155.46 272.3 1149.1 274.94C1142.86 277.58 1135.96 278.9 1128.4 278.9C1118.68 278.9 1110.04 276.86 1102.48 272.78C1095.04 268.58 1089.22 262.82 1085.02 255.5C1080.82 248.18 1078.72 239.9 1078.72 230.66C1078.72 221.42 1080.7 213.14 1084.66 205.82C1088.74 198.5 1094.26 192.8 1101.22 188.72C1108.3 184.64 1116.22 182.6 1124.98 182.6C1133.74 182.6 1141.6 184.64 1148.56 188.72C1155.52 192.8 1160.98 198.5 1164.94 205.82C1168.9 213.02 1170.88 221.3 1170.88 230.66L1170.7 234.62ZM1124.98 193.58C1115.86 193.58 1108.18 196.52 1101.94 202.4C1095.82 208.16 1092.34 215.72 1091.5 225.08H1158.64C1157.8 215.72 1154.26 208.16 1148.02 202.4C1141.9 196.52 1134.22 193.58 1124.98 193.58ZM1288.34 215H1301.12V263.06C1295.24 268.22 1288.28 272.18 1280.24 274.94C1272.2 277.7 1263.74 279.08 1254.86 279.08C1242.26 279.08 1230.92 276.32 1220.84 270.8C1210.76 265.28 1202.84 257.66 1197.08 247.94C1191.32 238.1 1188.44 227.12 1188.44 215C1188.44 202.88 1191.32 191.96 1197.08 182.24C1202.84 172.4 1210.76 164.72 1220.84 159.2C1230.92 153.68 1242.32 150.92 1255.04 150.92C1264.64 150.92 1273.46 152.48 1281.5 155.6C1289.54 158.6 1296.32 163.1 1301.84 169.1L1293.56 177.56C1283.6 167.72 1270.94 162.8 1255.58 162.8C1245.38 162.8 1236.14 165.08 1227.86 169.64C1219.7 174.08 1213.28 180.32 1208.6 188.36C1203.92 196.28 1201.58 205.16 1201.58 215C1201.58 224.84 1203.92 233.72 1208.6 241.64C1213.28 249.56 1219.7 255.8 1227.86 260.36C1236.02 264.92 1245.2 267.2 1255.4 267.2C1268.36 267.2 1279.34 263.96 1288.34 257.48V215ZM1415.67 183.32L1368.33 289.34C1364.49 298.22 1360.05 304.52 1355.01 308.24C1349.97 311.96 1343.91 313.82 1336.83 313.82C1332.27 313.82 1328.01 313.1 1324.05 311.66C1320.09 310.22 1316.67 308.06 1313.79 305.18L1319.73 295.64C1324.53 300.44 1330.29 302.84 1337.01 302.84C1341.33 302.84 1344.99 301.64 1347.99 299.24C1351.11 296.84 1353.99 292.76 1356.63 287L1360.77 277.82L1318.47 183.32H1331.79L1367.43 263.78L1403.07 183.32H1415.67ZM1551.75 182.6C1563.63 182.6 1572.93 186.02 1579.65 192.86C1586.49 199.7 1589.91 209.78 1589.91 223.1V278H1577.13V224.36C1577.13 214.52 1574.73 207.02 1569.93 201.86C1565.25 196.7 1558.59 194.12 1549.95 194.12C1540.11 194.12 1532.37 197.18 1526.73 203.3C1521.09 209.3 1518.27 217.64 1518.27 228.32V278H1505.49V224.36C1505.49 214.52 1503.09 207.02 1498.29 201.86C1493.61 196.7 1486.89 194.12 1478.13 194.12C1468.41 194.12 1460.67 197.18 1454.91 203.3C1449.27 209.3 1446.45 217.64 1446.45 228.32V278H1433.67V183.32H1445.91V200.6C1449.27 194.84 1453.95 190.4 1459.95 187.28C1465.95 184.16 1472.85 182.6 1480.65 182.6C1488.57 182.6 1495.41 184.28 1501.17 187.64C1507.05 191 1511.43 195.98 1514.31 202.58C1517.79 196.34 1522.77 191.48 1529.25 188C1535.85 184.4 1543.35 182.6 1551.75 182.6Z" fill="black"/>
<path d="M242.974 396.409C191.498 396.409 142.131 378.194 105.732 345.771C69.3334 313.347 48.8848 269.372 48.8848 223.518C48.8848 177.665 69.3334 133.689 105.732 101.266C142.131 68.8422 191.498 50.627 242.974 50.6269L242.974 223.518L242.974 396.409Z" fill="#2E7435"/>
<path d="M242.725 298.289C203.269 297.9 165.558 284.456 137.887 260.913C110.217 237.371 94.8539 205.659 95.1779 172.753C95.5018 139.847 111.486 108.443 139.615 85.4503C167.744 62.4571 205.712 49.7579 245.168 50.1464L243.947 174.218L242.725 298.289Z" fill="white"/>
<path d="M242.974 270.588C242.974 381.66 243.015 152.835 243.015 251.643C371.852 251.643 349.109 251.643 447.954 251.643C447.954 140.571 354.129 50.7246 243.015 50.7246C243.015 191.212 242.974 159.517 242.974 270.588Z" fill="#F6B93B"/>
<path d="M232.557 250.843C171.347 250.843 297.449 250.866 242.997 250.866C242.997 322.007 242.997 309.449 242.997 364.029C304.207 364.029 353.633 312.198 353.633 250.843C276.212 250.843 293.766 250.843 232.557 250.843Z" fill="#C23616"/>
<circle r="22.5595" transform="matrix(-1 0 0 1 192.799 150.491)" fill="black"/>
</svg>
